<svg width="50" height="50" xmlns="http://www.w3.org/2000/svg">
 <g>
  <title>Layer 1</title>
  <path stroke="black" id="svg_1" font-family="Sans" overflow="visible" d="m20.92893,3c-3.96802,0.07589 -6.53172,1.79829 -7.63032,4.39518c-1.0454,2.47114 -0.84353,5.56717 -0.0547,8.76237c-0.39965,0.49514 -0.68791,1.17065 -0.57433,2.1556c0.125,1.08432 0.38263,1.86174 0.79312,2.40755c0.2126,0.28269 0.50458,0.30247 0.76577,0.44792c0.14979,0.92412 0.42199,1.85912 0.79312,2.63151c0.21302,0.44335 0.44691,0.84313 0.68372,1.17578c0.10658,0.14971 0.26924,0.23776 0.38288,0.36393c0.16645,1.33168 0.15889,1.9561 -0.0547,3.10742c-0.26662,0.70523 -0.91517,1.27138 -1.96912,1.81966c-1.07132,0.55732 -2.46793,1.04552 -3.88353,1.67969c-1.4156,0.63417 -2.86662,1.41447 -4.02028,2.63151c-1.15366,1.21704 -1.97932,2.89998 -2.10586,5.09505l-0.0547,0.95182l0.92986,0l21.46883,0a0.87525,0.89592 0 0 0 0.08205,0c1.81938,3.20833 5.20313,5.375 9.07981,5.375c5.78961,0 10.50195,-4.82364 10.50195,-10.75c0,-5.75536 -4.45042,-10.4547 -10.00967,-10.722c-0.09703,-0.77327 -0.04795,-1.50061 0.0547,-2.04362c0.08329,-0.1002 0.22235,-0.16819 0.30084,-0.27995c0.20921,-0.29788 0.41989,-0.64375 0.60167,-1.03581c0.31011,-0.66885 0.52392,-1.4734 0.65637,-2.26758c0.2259,-0.13318 0.4745,-0.15015 0.65637,-0.39193c0.3727,-0.49547 0.62875,-1.17493 0.73842,-2.1276c0.0958,-0.83315 -0.15823,-1.42132 -0.49228,-1.87565c0.35433,-1.25719 0.72963,-3.19772 0.54698,-5.20703c-0.10112,-1.11228 -0.37807,-2.23485 -1.01191,-3.16341c-0.59384,-0.86997 -1.57749,-1.49095 -2.78958,-1.70768c-0.82645,-0.9757 -2.14604,-1.42773 -3.69209,-1.42773c-2.39749,0.04596 -4.2229,0.75987 -5.44242,1.98763c-0.27609,-0.10393 -0.56878,-0.21601 -0.87516,-0.27995c-0.88994,-1.22067 -2.51316,-1.70768 -4.37581,-1.70768zm0,1.79167c0.011,0 0.0164,-0.00004 0.02735,0c1.69515,0.0066 2.77873,0.52017 3.09042,1.0918l0.21879,0.39193l0.43758,0.05599c1.0746,0.13393 1.69705,0.58074 2.16056,1.25977c0.46351,0.67902 0.72286,1.64166 0.82046,2.71549c0.19521,2.14766 -0.30039,4.67836 -0.65637,5.79492l-0.21879,0.67187l0.57433,0.36393c-0.04856,-0.03081 0.33075,0.24617 0.24614,0.97982c-0.09992,0.86681 -0.31487,1.3122 -0.46493,1.51172c-0.15006,0.19952 -0.22538,0.16852 -0.21879,0.16797l-0.71107,0.05599l-0.08205,0.75586c-0.0786,0.7639 -0.36934,1.69841 -0.71107,2.43555c-0.17087,0.36857 -0.36827,0.68027 -0.51963,0.89583c-0.11353,0.16167 -0.229,0.26918 -0.21879,0.27995l-0.35553,0.16797l-0.08205,0.41992c-0.2422,1.1208 -0.27341,2.57896 0.08205,4.11523l0,0.05599l0.02735,0.05599c0.3006,0.84367 0.86554,1.47167 1.53153,1.98763c-0.54733,1.30088 -0.84781,2.72359 -0.84781,4.22721c0,1.25865 0.21138,2.4598 0.60167,3.58333l-19.66381,0c0.24002,-1.24528 0.70893,-2.24305 1.42214,-2.99544c0.89906,-0.94846 2.11649,-1.644 3.44595,-2.23958c1.32946,-0.59559 2.7562,-1.09231 3.99293,-1.73568c1.23673,-0.64337 2.36008,-1.47069 2.84428,-2.82747l0.02735,-0.08398l0,-0.05599c0.26548,-1.40127 0.33297,-2.32743 0.1094,-4.00326l-0.08205,-0.44792l-0.38288,-0.22396c0.08593,0.04696 -0.08707,-0.0845 -0.24614,-0.30794c-0.15907,-0.22344 -0.34418,-0.53069 -0.51963,-0.89583c-0.35089,-0.73028 -0.66095,-1.65105 -0.73842,-2.40755l-0.08205,-0.75586l-0.71107,-0.05599c0.00656,0.00056 -0.06874,0.03155 -0.21879,-0.16797c-0.15006,-0.19952 -0.36501,-0.64491 -0.46493,-1.51172c-0.08455,-0.73315 0.29398,-1.01026 0.24614,-0.97982l0.54698,-0.33594l-0.16409,-0.64388c-0.83679,-3.15586 -0.94775,-6.08079 -0.1094,-8.0625c0.83592,-1.97596 2.51075,-3.22922 6.01674,-3.30339zm10.69339,0c0.01098,0 0.01644,-0.00005 0.02735,0c1.44187,0.00666 2.33506,0.46359 2.57079,0.89583l0.21879,0.39193l0.43758,0.05599c0.90021,0.1122 1.39367,0.47325 1.77767,1.03581c0.384,0.56256 0.62785,1.38013 0.71107,2.29557c0.16644,1.83088 -0.27175,4.00609 -0.57433,4.95508l-0.21879,0.67187l0.57433,0.36393c-0.08889,-0.05616 0.23224,0.10722 0.16409,0.69987c-0.08462,0.73508 -0.27074,1.11068 -0.38288,1.25977c-0.11214,0.14908 -0.14831,0.1153 -0.1094,0.11198l-0.71107,0.05599l-0.08205,0.75586c-0.06591,0.6407 -0.31105,1.4448 -0.60167,2.07161c-0.14531,0.31341 -0.31231,0.57749 -0.43758,0.75586c-0.12527,0.17837 -0.27817,0.24535 -0.1094,0.16797l-0.38288,0.19596l-0.1094,0.41992c-0.15977,0.74045 -0.20025,1.65414 -0.08205,2.63151c-3.16621,0.39133 -5.89299,2.22332 -7.54828,4.8431c-0.33434,-0.30362 -0.57678,-0.62195 -0.71107,-0.97982c-0.25322,-1.15915 -0.23313,-2.28096 -0.08205,-3.07943c0.114,-0.1269 0.27881,-0.21572 0.38288,-0.36393c0.23527,-0.33506 0.4764,-0.72858 0.68372,-1.17578c0.36457,-0.78641 0.62061,-1.7295 0.76577,-2.65951c0.26513,-0.14556 0.55018,-0.16126 0.76577,-0.44792c0.41049,-0.54581 0.69547,-1.32324 0.82046,-2.40755c0.10986,-0.95257 -0.19538,-1.60383 -0.57433,-2.09961c0.41098,-1.43014 0.84143,-3.73811 0.62902,-6.07487c-0.1155,-1.27068 -0.43529,-2.53829 -1.14865,-3.58333c-0.15356,-0.22496 -0.32265,-0.42677 -0.51963,-0.61589c0.84376,-0.67192 2.05465,-1.10843 3.85618,-1.14779zm3.93823,21.5c4.84361,0 8.75163,4.00032 8.75163,8.95833c0,4.95802 -3.90801,8.95833 -8.75163,8.95833c-4.84361,0 -8.75163,-4.00032 -8.75163,-8.95833c0,-4.95802 3.90801,-8.95833 8.75163,-8.95833zm-0.87516,3.58333l0,4.47917l-4.37581,0l0,1.79167l4.37581,0l0,4.47917l1.75033,0l0,-4.47917l4.37581,0l0,-1.79167l-4.37581,0l0,-4.47917l-1.75033,0z"/>
 </g>

</svg>