<svg width="50" height="50" xmlns="http://www.w3.org/2000/svg">
 <g>
  <title>Layer 1</title>
  <path stroke="black" d="m26,1c-1.53052,0 -2.59402,0.64998 -3.77812,1.125c-1.1841,0.47502 -2.41843,0.875 -4.02187,0.875a1.30013,1.0001 0 0 0 -1.09687,1.5625l2.39687,2.75l0,0.6875a1.30013,1.0001 0 0 0 0,0.09375l0,0.90625c0,2.74846 2.92426,5 6.5,5c3.57574,0 6.5,-2.25154 6.5,-5l0,-0.90625a1.30013,1.0001 0 0 0 0,-0.09375l0,-0.6875l2.39687,-2.75a1.30013,1.0001 0 0 0 -1.09687,-1.5625c-1.63795,0 -2.88829,-0.40111 -4.0625,-0.875c-1.17421,-0.47389 -2.20698,-1.125 -3.7375,-1.125zm0,2c0.29858,0 1.21516,0.34889 2.51875,0.875c0.82126,0.33145 1.90844,0.62557 3.0875,0.84375l-1.50312,1.71875a1.30013,1.0001 0 0 0 0,0.03125a1.30013,1.0001 0 0 0 -0.12187,0.15625a1.30013,1.0001 0 0 0 -0.04062,0.09375a1.30013,1.0001 0 0 0 -0.04062,0.09375a1.30013,1.0001 0 0 0 0,0.03125a1.30013,1.0001 0 0 0 0,0.0625a1.30013,1.0001 0 0 0 0,0.03125a1.30013,1.0001 0 0 0 0,0.0625l-3.9,0l-3.9,0a1.30013,1.0001 0 0 0 0,-0.09375a1.30013,1.0001 0 0 0 0,-0.09375a1.30013,1.0001 0 0 0 -0.08125,-0.21875a1.30013,1.0001 0 0 0 -0.12187,-0.15625l-0.08125,-0.09375a1.30013,1.0001 0 0 0 -0.08125,-0.0625l-1.34062,-1.5625c1.17169,-0.21808 2.22243,-0.51301 3.04687,-0.84375c1.30864,-0.52498 2.26079,-0.875 2.55937,-0.875zm0,4c0.71798,0 1.3,-0.44772 1.3,-1c0,-0.55228 -0.58202,-1 -1.3,-1c-0.71798,0 -1.3,0.44772 -1.3,1c0,0.55228 0.58202,1 1.3,1zm-3.85937,2.4375c0.06042,0.01453 0.10046,0.01672 0.1625,0.03125c1.11756,0.26181 2.46303,0.53125 3.69687,0.53125c1.23384,0 2.57932,-0.26944 3.69687,-0.53125c0.06204,-0.01453 0.10208,-0.01672 0.1625,-0.03125c-0.27851,1.451 -1.8883,2.5625 -3.85937,2.5625c-1.97107,0 -3.58086,-1.1115 -3.85937,-2.5625zm-3.94062,5.5625c-2.85653,0 -5.2,1.80267 -5.2,4l0,10l0,2l0,2l0,0.625l0.73125,0.28125l4.46875,1.71875l0,11.375l0,1l1.3,0l13,0l1.3,0l0,-1l0,-11.375l4.46875,-1.71875l0.73125,-0.28125l0,-0.625l0,-2l0,-2l0,-10c0,-2.19733 -2.34347,-4 -5.2,-4l-3.9,0l-0.65,0l-0.40625,0.40625l-2.84375,2.90625l-2.84375,-2.90625l-0.40625,-0.40625l-0.65,0l-3.9,0zm0,2l3.25,0l3.49375,3.59375l1.05625,1.0625l1.05625,-1.0625l3.49375,-3.59375l3.25,0c1.45167,0 2.6,0.88333 2.6,2l0,10l-1.3,0l0,2l1.3,0l0,1.375l-2.6,1l0,-10.375l-2.6,0l0,11.875a1.30823,1.00633 0 0 0 0,0.3125l0,6.8125l-2.6,0l0,2l2.6,0l0,2l-3.9,0l0,-12l-2.6,0l0,12l-3.9,0l0,-2l2.6,0l0,-2l-2.6,0l0,-6.875a1.30823,1.00633 0 0 0 0,-0.3125l0,-11.8125l-2.6,0l0,10.375l-2.6,-1l0,-1.375l1.3,0l0,-2l-1.3,0l0,-10c0,-1.11667 1.14833,-2 2.6,-2z" id="svg_1"/>
 </g>

</svg>